Coordinates
version=1
nRows=10
nColumns=40
inDegrees=yes

Units are S.I. units (second, meters, Newtons, ...)
If the header above contains a line with 'inDegrees', this indicates whether rotational values are in degrees (yes) or radians (no).

endheader
time	pelvis_tilt	pelvis_list	pelvis_rotation	pelvis_tx	pelvis_ty	pelvis_tz	hip_flexion_r	hip_adduction_r	hip_rotation_r	knee_angle_r	knee_angle_r_beta	ankle_angle_r	subtalar_angle_r	mtp_angle_r	hip_flexion_l	hip_adduction_l	hip_rotation_l	knee_angle_l	knee_angle_l_beta	ankle_angle_l	subtalar_angle_l	mtp_angle_l	lumbar_extension	lumbar_bending	lumbar_rotation	arm_flex_r	arm_add_r	arm_rot_r	elbow_flex_r	pro_sup_r	wrist_flex_r	wrist_dev_r	arm_flex_l	arm_add_l	arm_rot_l	elbow_flex_l	pro_sup_l	wrist_flex_l	wrist_dev_l
      0.88500000	    -12.96364287	     -1.92075848	      0.60808031	      0.21124269	      0.88531694	     -1.20773432	     25.73202624	    -17.98698150	    -24.53867922	     26.87494024	      0.46905619	      1.31656648	    -12.89227549	      0.00000000	     25.39916089	    -23.73604668	    -33.08149265	     23.38313515	      0.40811270	      5.26248269	     13.02793859	      0.00000000	     -4.71864130	      0.20964288	      1.09158962	     44.99453322	    -15.00006606	     44.99453322	     75.00017590	     45.00000026	      0.00000000	      0.00000000	     44.99453322	    -15.00006606	     44.99453322	     75.00017590	     45.00000026	      0.00000000	      0.00000000
      0.89000000	    -13.18603427	     -2.04736658	      0.50834643	      0.21010655	      0.88388984	     -1.20743311	     26.37442624	    -17.92248813	    -24.17698719	     27.47440929	      0.47951890	      1.46671727	    -13.16042546	      0.00000000	     26.08834460	    -24.16385941	    -32.87682703	     24.20424047	      0.42244369	      5.55458552	     12.86036433	      0.00000000	     -4.73089098	      0.31562343	      1.19328728	     44.99482391	    -15.00006106	     44.99482391	     75.00017590	     45.00000026	      0.00000000	      0.00000000	     44.99482391	    -15.00006106	     44.99482391	     75.00017590	     45.00000026	      0.00000000	      0.00000000
      0.89500000	    -13.44502295	     -2.25137134	      0.43586201	      0.20894705	      0.88231975	     -1.20720270	     27.02901214	    -17.77879287	    -23.86260451	     28.04554289	      0.48948706	      1.51976591	    -13.58884499	      0.00000000	     26.89457594	    -24.68979914	    -32.60244150	     25.12712289	      0.43855103	      5.91607386	     12.73860343	      0.00000000	     -4.70424600	      0.56137730	      1.41344502	     44.99511913	    -15.00005600	     44.99511913	     75.00017589	     45.00000026	      0.00000000	      0.00000000	     44.99511913	    -15.00005600	     44.99511913	     75.00017589	     45.00000026	      0.00000000	      0.00000000
      0.90000000	    -13.69509597	     -2.42175044	      0.39798593	      0.20784496	      0.88066488	     -1.20703945	     27.67825346	    -17.72986998	    -23.66040908	     28.68723267	      0.50068666	      1.71373903	    -13.79832247	      0.00000000	     27.71367670	    -25.17701840	    -32.34044793	     26.08470856	      0.45526405	      6.29900635	     12.66612156	      0.00000000	     -4.68222391	      0.74805099	      1.51594466	     44.99536925	    -15.00005177	     44.99536925	     75.00017589	     45.00000026	      0.00000000	      0.00000000	     44.99536925	    -15.00005177	     44.99536925	     75.00017589	     45.00000026	      0.00000000	      0.00000000
      0.90500000	    -13.88988079	     -2.53308259	      0.39655043	      0.20673799	      0.87904630	     -1.20697677	     28.30525725	    -17.82354277	    -23.59973461	     29.44216426	      0.51386271	      2.04832292	    -13.71146731	      0.00000000	     28.44682369	    -25.54323024	    -32.01601862	     26.93973448	      0.47018707	      6.61349196	     12.51672193	      0.00000000	     -4.72672158	      0.81042177	      1.36734462	     44.99556039	    -15.00004860	     44.99556039	     75.00017588	     45.00000026	      0.00000000	      0.00000000	     44.99556039	    -15.00004860	     44.99556039	     75.00017588	     45.00000026	      0.00000000	      0.00000000
      0.91000000	    -14.16080876	     -2.63547519	      0.29110889	      0.20557697	      0.87721583	     -1.20667017	     29.06528528	    -17.83948977	    -23.34486515	     30.18996802	      0.52691434	      2.27416063	    -13.91618119	      0.00000000	     29.23047476	    -25.98313864	    -31.81545587	     27.84868321	      0.48605121	      6.96288412	     12.47091346	      0.00000000	     -4.68541217	      0.90097682	      1.49857700	     44.99562277	    -15.00004762	     44.99562277	     75.00017588	     45.00000026	      0.00000000	      0.00000000	     44.99562277	    -15.00004762	     44.99562277	     75.00017588	     45.00000026	      0.00000000	      0.00000000
      0.91500000	    -14.32824138	     -2.72325251	      0.26547671	      0.20443016	      0.87556032	     -1.20657274	     29.67072674	    -17.92902165	    -23.20881663	     30.92139191	      0.53968010	      2.58688028	    -13.86841758	      0.00000000	     29.92380519	    -26.33018853	    -31.51150868	     28.69169542	      0.50076455	      7.26586032	     12.29380705	      0.00000000	     -4.77196794	      0.96677330	      1.46650985	     44.99580643	    -15.00004462	     44.99580643	     75.00017588	     45.00000026	      0.00000000	      0.00000000	     44.99580643	    -15.00004462	     44.99580643	     75.00017588	     45.00000026	      0.00000000	      0.00000000
      0.92000000	    -14.55136755	     -2.84521085	      0.22954178	      0.20328502	      0.87371774	     -1.20644118	     30.33510309	    -17.97537843	    -23.08632750	     31.64609499	      0.55232855	      2.83462189	    -13.95687014	      0.00000000	     30.71446879	    -26.74694205	    -31.21366011	     29.61042609	      0.51679943	      7.61975503	     12.21723354	      0.00000000	     -4.78253337	      1.07999244	      1.48264597	     44.99593002	    -15.00004259	     44.99593002	     75.00017587	     45.00000026	      0.00000000	      0.00000000	     44.99593002	    -15.00004259	     44.99593002	     75.00017587	     45.00000026	      0.00000000	      0.00000000
      0.92500000	    -14.87887177	     -2.78484961	      0.39399684	      0.20200783	      0.87166373	     -1.20666572	     31.16539651	    -18.41134645	    -23.18580269	     32.58541891	      0.56872285	      3.04972388	    -14.04738525	      0.00000000	     31.62580331	    -26.72128046	    -30.52995466	     30.29103099	      0.52867822	      7.84110997	     11.77303247	      0.00000000	     -4.68368087	      1.05479297	      1.42283274	     44.99604302	    -15.00004075	     44.99604302	     75.00017587	     45.00000026	      0.00000000	      0.00000000	     44.99604302	    -15.00004075	     44.99604302	     75.00017587	     45.00000026	      0.00000000	      0.00000000
      0.93000000	    -14.95350076	     -2.97959008	      0.21849794	      0.20098967	      0.86993226	     -1.20631642	     31.66637157	    -18.29710136	    -22.98994089	     33.25119694	      0.58034287	      3.46062191	    -13.86356673	      0.00000000	     32.21723117	    -27.37700874	    -30.53574736	     31.33868511	      0.54696324	      8.36181424	     12.01984088	      0.00000000	     -4.85585596	      1.15099466	      1.30224978	     44.99613702	    -15.00003917	     44.99613702	     75.00017587	     45.00000026	      0.00000000	      0.00000000	     44.99613702	    -15.00003917	     44.99613702	     75.00017587	     45.00000026	      0.00000000	      0.00000000
